HIERARCHY
ROOT Hips
{
     OFFSET -8.00444 100.12900 13.79480
     CHANNELS 6 Xposition Yposition Zposition Zrotation Xrotation Yrotation
     JOINT Spine
     {
          OFFSET -0.00000 11.89050 -0.00000
          CHANNELS 3 Zrotation Xrotation Yrotation
          JOINT Spine1
          {
               OFFSET -0.00000 25.65740 0.12766
               CHANNELS 3 Zrotation Xrotation Yrotation
               JOINT HEad
               {
                    OFFSET -0.00000 8.73416 0.01134
                    CHANNELS 3 Zrotation Xrotation Yrotation
                    End Site
                    {
                         OFFSET -0.29000 12.77420 2.51395
                    }
               }
               JOINT LeftShoulder1
               {
                    OFFSET 8.99000 -0.36225 -0.22000
                    CHANNELS 3 Zrotation Xrotation Yrotation
                    JOINT LeftArm
                    {
                         OFFSET 10.28270 -0.00338 0.32212
                         CHANNELS 3 Zrotation Xrotation Yrotation
                         JOINT LeftForeArm
                         {
                              OFFSET 32.76690 0.09914 -1.42434
                              CHANNELS 3 Zrotation Xrotation Yrotation
                              JOINT LeftHand
                              {
                                   OFFSET 27.56430 0.08536 1.02216
                                   CHANNELS 3 Zrotation Xrotation Yrotation
                                   End Site
                                   {
                                        OFFSET 16.74430 -0.60000 1.50291
                                   }
                              }
                         }
                    }
               }
               JOINT RightShoulder
               {
                    OFFSET -8.99000 -0.36225 -0.22000
                    CHANNELS 3 Zrotation Xrotation Yrotation
                    JOINT RightArm
                    {
                         OFFSET -10.28270 -0.00338 0.32212
                         CHANNELS 3 Zrotation Xrotation Yrotation
                         JOINT RightForeArm
                         {
                              OFFSET -32.89710 0.09914 -1.42434
                              CHANNELS 3 Zrotation Xrotation Yrotation
                              JOINT RightHand
                              {
                                   OFFSET -27.49210 0.08536 1.02216
                                   CHANNELS 3 Zrotation Xrotation Yrotation
                                   End Site
                                   {
                                        OFFSET -16.63120 -0.60000 1.50291
                                   }
                              }
                         }
                    }
               }
          }
     }
     JOINT LeftUpLeg
     {
          OFFSET 8.94580 -8.66707 0.10165
          CHANNELS 3 Zrotation Xrotation Yrotation
          JOINT LeftLeg
          {
               OFFSET -0.00000 -44.42270 1.37270
               CHANNELS 3 Zrotation Xrotation Yrotation
               JOINT LeftFoot
               {
                    OFFSET -0.25355 -42.09240 -1.46059
                    CHANNELS 3 Zrotation Xrotation Yrotation
                    JOINT LeftToes
                    {
                         OFFSET -0.04000 -4.41509 8.49910
                         CHANNELS 3 Zrotation Xrotation Yrotation
                         End Site
                         {
                              OFFSET 0.08000 -0.04745 9.77979
                         }
                    }
               }
          }
     }
     JOINT RightUpLeg
     {
          OFFSET -8.94580 -8.66707 0.10165
          CHANNELS 3 Zrotation Xrotation Yrotation
          JOINT RightLeg
          {
               OFFSET -0.00000 -44.42270 1.37270
               CHANNELS 3 Zrotation Xrotation Yrotation
               JOINT RightFoot
               {
                    OFFSET 0.25355 -42.09240 -1.46059
                    CHANNELS 3 Zrotation Xrotation Yrotation
                    JOINT RightToes
                    {
                         OFFSET 0.04000 -4.41509 8.49910
                         CHANNELS 3 Zrotation Xrotation Yrotation
                         End Site
                         {
                              OFFSET -0.08000 -0.13745 9.77979
                         }
                    }
               }
          }
     }
}
MOTION
Frames: 7
Frame Time: 0.01667
-11.39700 89.09830 -10.19920 -2.18622 -2.16905 -38.31160 -3.52567 7.06636 3.90368 -4.61173 13.58330 7.23351 7.41167 -10.75880 31.91220 -0.00000 -0.00000 0.00000 -71.81570 -51.86390 -80.02190 -21.92830 35.23740 -96.27310 5.55594 9.67997 -0.87718 13.22500 1.07631 4.04918 63.27030 -30.13840 79.59670 24.78210 42.30780 89.09380 -5.55712 9.68432 0.87760 20.89500 -26.41930 4.01014 7.98810 33.42770 -39.29630 -15.42100 -15.33940 -0.98174 0.74387 -7.90641 -3.32034 -18.45070 -6.49888 -0.33629 10.93040 67.70950 -13.64420 11.35370 -31.79130 2.18917 6.43683 8.25346 -0.32786 
-12.25400 89.69140 -11.81150 -2.65044 -1.41183 -38.82010 -3.06025 6.78071 3.40533 -4.60226 13.14190 6.26249 8.83048 -11.60400 32.62680 -0.00000 -0.00000 0.00000 -58.44490 -53.09290 -68.72500 -19.81060 32.86140 -93.03980 5.55594 9.67997 -0.87718 14.14600 1.13585 4.11586 56.85130 -29.08420 74.87320 23.73890 40.72270 90.66610 -5.55712 9.68432 0.87760 22.82980 -24.42610 3.81443 6.99036 28.41370 -37.21430 -15.66820 -11.32680 -0.45827 0.71760 -11.17510 -3.13815 -18.65510 -5.98143 0.55185 10.27670 67.67990 -12.77030 11.41140 -29.82650 1.99837 6.36593 8.15666 -0.32234 
-13.09260 90.34220 -13.59840 -3.21550 -0.56336 -39.45730 -2.41322 6.42191 2.85562 -4.40934 12.60210 5.24005 9.61903 -11.59260 33.81180 -0.00000 -0.00000 0.00000 -45.55260 -52.50050 -58.96780 -17.17790 29.38740 -84.34470 5.55594 9.67997 -0.87718 14.25610 1.14646 4.14391 50.85750 -26.13770 71.02130 22.03340 38.73370 91.65790 -5.55712 9.68432 0.87760 24.45530 -22.09820 3.01848 6.65242 22.71390 -33.98810 -16.19640 -6.61513 0.17360 0.67329 -14.20660 -2.68760 -18.71430 -5.65501 1.17026 8.78694 67.56350 -10.86020 11.79670 -28.15940 1.90005 6.00573 7.61530 -0.36287 
-13.89540 91.01880 -15.59870 -3.82332 0.32497 -40.09180 -1.63873 6.02962 2.28733 -3.99526 12.01730 4.15330 9.51771 -10.73060 35.56090 -0.00000 -0.00000 0.00000 -28.76310 -45.26460 -48.18720 -12.43230 18.39510 -71.54010 5.55594 9.67997 -0.87718 13.56200 1.10967 4.14516 46.15160 -22.04570 69.02580 20.30030 36.88120 91.67010 -5.55712 9.68432 0.87760 25.77740 -19.62860 1.97788 6.83320 16.58690 -29.10710 -17.36500 -1.01957 1.00545 0.64784 -16.47070 -2.25121 -18.73080 -5.51509 1.39722 6.72321 67.33290 -8.20065 12.18660 -26.46780 1.78917 5.21892 6.49649 -0.37443 
-14.62760 91.64860 -17.79200 -4.40026 1.19628 -40.45380 -0.78607 5.66408 1.66588 -3.38618 11.49730 2.93435 8.54710 -9.48093 37.91160 -0.00000 -0.00000 0.00000 -14.07960 -33.52380 -42.15880 -6.10564 3.71728 -53.37690 5.55594 9.67997 -0.87718 12.17220 1.03346 4.12970 42.94540 -17.97750 68.98400 18.85030 35.53990 90.98270 -5.55712 9.68432 0.87760 26.90180 -17.61970 1.31615 6.99153 10.95950 -22.29380 -19.10320 5.32866 2.13077 0.63579 -17.43970 -1.97524 -18.82670 -5.45943 1.22682 4.55178 66.90050 -5.30911 12.39290 -24.23970 1.57993 3.86255 4.70935 -0.21518 
-15.25580 92.16400 -20.14250 -4.88408 1.92391 -40.27870 0.06771 5.41585 0.95843 -2.67610 11.20950 1.52485 7.06602 -8.53120 40.72720 -0.00000 -0.00000 0.00000 -3.21504 -23.76550 -41.21430 1.17263 -4.92837 -30.85630 5.55594 9.67997 -0.87718 10.30150 0.92555 4.06160 41.13000 -14.99100 70.26200 17.83210 34.85460 90.24160 -5.55712 9.68432 0.87760 27.93270 -16.95780 1.68193 6.32071 7.51422 -13.84940 -20.64760 11.33800 3.35773 0.60233 -16.37180 -1.72376 -19.08930 -5.29390 0.80301 2.62193 66.14670 -2.65422 12.53540 -21.13640 1.26080 2.02117 2.44080 0.21842 
-15.79610 92.62570 -22.71360 -5.25890 2.49924 -39.44040 0.71264 5.39590 0.17510 -1.98121 11.33310 -0.06333 5.55922 -8.31609 43.62600 -0.00000 -0.00000 0.00000 4.74778 -18.35630 -42.33190 6.14672 -4.06852 -9.55033 5.55594 9.67997 -0.87718 8.23686 0.79409 3.85309 40.68240 -13.70830 71.94810 17.45240 34.86530 89.96860 -5.55712 9.68432 0.87760 28.96690 -17.82470 3.52585 4.37855 6.74862 -5.18419 -21.16900 15.76240 4.23977 0.55308 -13.43240 -1.63766 -19.31370 -4.93788 0.29900 0.98560 64.85760 -0.52052 12.82300 -17.10970 0.85013 -0.09026 0.02850 1.03249 
